<svg width="24" height="24" viewBox="0 0 24 24" fill="none" xmlns="http://www.w3.org/2000/svg">
<g id="Interface / Search_Magnifying_Glass">
<path id="Vector" d="M15 15C17.3431 17.3431 18.6569 18.6569 21 21M10 17C6.13401 17 3 13.866 3 10C3 6.13401 6.13401 3 10 3C13.866 3 17 6.13401 17 10C17 13.866 13.866 17 10 17Z" stroke="#111111" stroke-width="2" stroke-linecap="round" stroke-linejoin="round"/>
<path id="Vector 2" d="M14.9784 12V18" stroke="white" stroke-width="2"/>
<path id="Vector 1" d="M17 16.5C16.5 15.5 16.0751 14.8958 17 12.5" stroke="#111111"/>
<path id="Vector 3" d="M17 17.5C15 16.5 15 14 16.5 11.5" stroke="#111111"/>
<path id="Vector 4" d="M16 13.5V16.5" stroke="#111111"/>
<path id="Vector 5" d="M14 14.5L14.5 17.5" stroke="white"/>
</g>
</svg>
